#!OML:ASF H:\Terrain\Patient Classification 1\Walking\steve\steve.ASF
:FULLY-SPECIFIED
:DEGREES
246
root 7.56734 16.5044 14.0167 4.30987 -3.26863 -2.77874
lowerback -0.327569 3.11418 5.46986
upperback -2.34724 4.24152 2.14666
thorax -2.00385 2.03712 -0.896574
lowerneck -8.96045 -0.169141 -0.232896
upperneck 16.6268 0.524725 -4.05709
head 6.54487 -0.086786 -1.21459
rclavicle -5.50634e-014 0
rhumerus -29.2141 -19.5805 -79.8323
rradius 27.0264
rwrist 1.50271
rhand -22.0507 -36.0946
rfingers 7.12502
rthumb 4.35977 -66.0297
lclavicle -5.50634e-014 0
lhumerus -36.1852 5.41277 87.3828
lradius 20.7848
lwrist 6.48108
lhand -22.9972 -13.4003
lfingers 7.12502
lthumb 3.44582 16.5516
rfemur -15.4216 2.33975 28.096
rtibia 35.0884
rfoot -20.5878 11.8503
rtoes 3.2086
lfemur -29.933 9.48246 -18.1185
ltibia 61.9765
lfoot -12.0885 5.45407
ltoes -8.01447
247
root 7.57067 16.5052 14.2155 4.52045 -3.45336 -2.98258
lowerback -0.35903 3.13924 5.61896
upperback -2.42331 4.27772 2.15328
thorax -2.05336 2.05001 -0.972521
lowerneck -8.25185 -0.158996 -0.145946
upperneck 15.7531 0.521108 -4.29726
head 6.14405 -0.0817624 -1.29722
rclavicle 8.60365e-014 4.05521e-014
rhumerus -27.7216 -16.9454 -81.1626
rradius 28.7591
rwrist -1.7921
rhand -21.4857 -36.8291
rfingers 7.12502
rthumb 4.90541 -66.7523
lclavicle 8.60365e-014 4.05521e-014
lhumerus -36.9011 8.09844 85.4001
lradius 18.7866
lwrist 3.22086
lhand -21.8815 -12.7234
lfingers 7.12502
lthumb 4.52316 17.2083
rfemur -14.6761 1.88991 28.2861
rtibia 34.6276
rfoot -20.8641 12.4491
rtoes 2.8851
lfemur -31.2332 9.38863 -18.0097
ltibia 60.2238
lfoot -13.7814 4.74268
ltoes -6.86901
248
root 7.58374 16.5178 14.4293 4.65367 -3.64367 -2.77457
lowerback -0.361218 3.13118 5.58523
upperback -2.5824 4.27157 1.98239
thorax -2.20631 2.03967 -1.13414
lowerneck -8.30673 0.0545452 -0.563685
upperneck 16.2031 0.766024 -3.5345
head 6.29817 0.064253 -0.969418
rclavicle -2.84014e-014 7.95139e-016
rhumerus -26.4524 -14.9495 -82.0971
rradius 30.2931
rwrist -4.04705
rhand -21.6572 -36.6559
rfingers 7.12502
rthumb 4.73976 -66.5829
lclavicle -2.84014e-014 7.95139e-016
lhumerus -38.0996 11.4195 82.7142
lradius 16.9821
lwrist -0.948554
lhand -20.8534 -12.0595
lfingers 7.12502
lthumb 5.51587 17.8487
rfemur -13.6166 0.881422 27.935
rtibia 34.0052
rfoot -21.4014 13.1332
rtoes 1.29861
lfemur -32.0934 9.08144 -18.3764
ltibia 57.9924
lfoot -14.9849 4.83309
ltoes -5.34745
249
root 7.60111 16.5315 14.6662 4.65262 -3.98294 -2.66493
lowerback -0.446848 3.20885 5.65349
upperback -2.66721 4.37053 1.85349
thorax -2.22538 2.08434 -1.30156
lowerneck -8.38365 -0.00766531 -0.674713
upperneck 16.4705 0.692327 -3.44133
head 6.39497 0.024542 -0.928643
rclavicle -2.86995e-014 -2.38542e-015
rhumerus -25.2734 -13.7229 -82.6424
rradius 31.5783
rwrist -4.76044
rhand -21.082 -37.2022
rfingers 7.12502
rthumb 5.29521 -67.116
lclavicle -2.86995e-014 -2.38542e-015
lhumerus -39.7119 14.9953 79.5057
lradius 15.5291
lwrist -5.83591
lhand -19.4207 -11.3067
lfingers 7.12502
lthumb 6.89901 18.5608
rfemur -12.322 -0.34971 27.607
rtibia 33.3361
rfoot -21.7444 14.2547
rtoes 1.05997
lfemur -32.4318 8.82111 -18.5508
ltibia 55.3965
lfoot -15.4999 5.47403
ltoes -7.01021
250
root 7.61682 16.5497 14.8963 4.66656 -4.28408 -2.42168
lowerback -0.657746 3.2961 5.53547
upperback -2.5657 4.46142 1.69078
thorax -1.99137 2.138 -1.38617
lowerneck -8.77164 -0.179498 -1.11848
upperneck 16.6548 0.452415 -2.93989
head 6.51688 -0.0848765 -0.715983
rclavicle 1.07592e-014 -7.15625e-015
rhumerus -23.7926 -12.5341 -83.154
rradius 32.7936
rwrist -5.67452
rhand -19.3166 -38.3968
rfingers 7.12502
rthumb 6.99956 -68.2611
lclavicle 1.07592e-014 -7.15625e-015
lhumerus -41.1902 18.0851 76.3474
lradius 14.4316
lwrist -10.2669
lhand -18.3594 -11.0528
lfingers 7.12502
lthumb 7.92351 18.7787
rfemur -11.1179 -1.34531 27.0911
rtibia 32.6464
rfoot -21.4267 15.8557
rtoes 3.82503
lfemur -32.7981 8.55759 -18.8303
ltibia 52.6145
lfoot -15.9094 6.14807
ltoes -9.39013
251
root 7.62932 16.5619 15.0944 4.82458 -4.61908 -2.3
lowerback -0.798795 3.37757 5.54464
upperback -2.38316 4.54762 1.51665
thorax -1.70307 2.18938 -1.55287
lowerneck -9.27338 0.177464 -0.544907
upperneck 16.7112 0.889956 -3.10527
head 6.62908 0.143435 -0.828617
rclavicle -2.36057e-016 2.8625e-014
rhumerus -21.9975 -10.9825 -83.8077
rradius 34.17
rwrist -7.6116
rhand -18.518 -38.7706
rfingers 7.12502
rthumb 7.77038 -68.6078
lclavicle -2.36057e-016 2.8625e-014
lhumerus -42.4155 21.3213 72.9344
lradius 13.0668
lwrist -14.4718
lhand -18.1669 -11.7022
lfingers 7.12502
lthumb 8.10927 18.1222
rfemur -10.1354 -1.87918 26.7831
rtibia 31.8932
rfoot -21.0186 16.4891
rtoes 4.59512
lfemur -33.4786 8.34981 -18.989
ltibia 49.7415
lfoot -16.5005 6.98804
ltoes -11.1253
252
root 7.63984 16.5525 15.2862 5.05341 -4.92766 -2.63153
lowerback -0.737686 3.46592 5.98734
upperback -2.35903 4.66937 1.47559
thorax -1.66801 2.24314 -1.84021
lowerneck -9.333 0.222169 -0.364557
upperneck 16.3623 0.953441 -3.34768
head 6.53069 0.169117 -0.929335
rclavicle -6.43006e-014 -2.94201e-014
rhumerus -20.7381 -9.10135 -84.3288
rradius 35.948
rwrist -10.1195
rhand -19.2493 -38.0653
rfingers 7.12502
rthumb 7.06446 -67.9274
lclavicle -6.43006e-014 -2.94201e-014
lhumerus -44.2212 24.8492 68.8672
lradius 11.8058
lwrist -19.2449
lhand -16.888 -11.1615
lfingers 7.12502
lthumb 9.34341 18.6114
rfemur -9.25246 -2.35948 27.0105
rtibia 31.1365
rfoot -20.6913 16.8613
rtoes 3.99996
lfemur -34.1808 8.19916 -18.6209
ltibia 46.8048
lfoot -16.8196 7.80394
ltoes -11.6474
253
root 7.64593 16.5325 15.4916 5.2291 -5.19177 -2.99071
lowerback -0.638703 3.5519 6.27271
upperback -2.44077 4.7987 1.58031
thorax -1.78592 2.29849 -1.89868
lowerneck -9.11351 0.324316 -0.0389253
upperneck 16.0419 1.09957 -3.77153
head 6.3962 0.231747 -1.10503
rclavicle -9.07576e-015 -9.54166e-015
rhumerus -19.7426 -7.21761 -84.451
rradius 37.5846
rwrist -12.3891
rhand -19.2925 -37.8892
rfingers 7.12502
rthumb 7.02282 -67.7527
lclavicle -9.07576e-015 -9.54166e-015
lhumerus -46.6297 27.7483 64.8878
lradius 11.0457
lwrist -23.6595
lhand -20.9248 -12.9104
lfingers 7.12502
lthumb 5.44696 16.9996
rfemur -8.29357 -2.69 27.2581
rtibia 30.3839
rfoot -20.206 17.7612
rtoes 5.58655
lfemur -34.6827 8.12593 -18.1635
ltibia 43.7432
lfoot -17.0854 8.20959
ltoes -10.3262
254
root 7.65001 16.5227 15.7107 5.28183 -5.56928 -3.10924
lowerback -0.70266 3.6243 6.15697
upperback -2.41348 4.88983 1.71594
thorax -1.73561 2.34918 -1.69035
lowerneck -8.96134 0.283628 -0.442209
upperneck 15.8247 1.07828 -3.65934
head 6.29866 0.210935 -1.00317
rclavicle -4.87644e-015 3.89618e-014
rhumerus -18.4255 -5.80714 -84.3953
rradius 38.7291
rwrist -13.3992
rhand -18.3121 -38.4985
rfingers 7.12502
rthumb 7.96911 -68.3283
lclavicle -4.87644e-015 3.89618e-014
lhumerus -49.3067 30.3542 60.8208
lradius 10.3124
lwrist -27.6055
lhand -19.3858 -12.895
lfingers 7.12502
lthumb 6.93274 16.9715
rfemur -7.04167 -2.99734 27.2032
rtibia 29.4793
rfoot -20.3153 18.2794
rtoes 4.52409
lfemur -34.8247 8.00053 -17.8679
ltibia 40.5341
lfoot -17.8737 8.21164
ltoes -11.3784
255
root 7.65897 16.5254 15.9336 5.3521 -6.17939 -2.99763
lowerback -0.732941 3.77447 5.95797
upperback -2.43658 5.08651 1.63738
thorax -1.73723 2.44984 -1.65897
lowerneck -9.09315 0.200507 -0.590343
upperneck 15.9749 0.973592 -3.53025
head 6.3665 0.157968 -0.946747
rclavicle -3.22652e-014 -3.18055e-014
rhumerus -17.3348 -4.50973 -84.5051
rradius 39.7707
rwrist -14.2739
rhand -18.2455 -39.0776
rfingers 7.12502
rthumb 8.03336 -68.905
lclavicle -3.22652e-014 -3.18055e-014
lhumerus -50.4482 30.0054 59.959
lradius 9.913
lwrist -27.7865
lhand -18.4135 -11.2766
lfingers 7.12502
lthumb 7.87129 18.5568
rfemur -5.69395 -3.49122 26.7558
rtibia 28.3519
rfoot -20.0825 19.1344
rtoes 3.95809
lfemur -34.7779 7.61343 -17.6713
ltibia 37.2493
lfoot -18.5359 8.36204
ltoes -13.1157
256
root 7.6703 16.5219 16.1547 5.58819 -6.79766 -3.207
lowerback -0.760475 3.96456 6.1753
upperback -2.56617 5.34328 1.55451
thorax -1.81154 2.56872 -1.86372
lowerneck -9.09463 0.145936 -0.535388
upperneck 15.9042 0.869572 -3.42467
head 6.34202 0.120125 -0.930349
rclavicle -6.72886e-014 -1.59028e-015
rhumerus -16.4185 -3.09603 -84.6331
rradius 40.904
rwrist -15.6971
rhand -18.7033 -39.8029
rfingers 7.12502
rthumb 7.59152 -69.6466
lclavicle -6.72886e-014 -1.59028e-015
lhumerus -51.7057 29.4528 58.9949
lradius 9.80896
lwrist -28.0627
lhand -18.1799 -10.1559
lfingers 7.12502
lthumb 8.09666 19.669
rfemur -4.52679 -3.89569 26.5902
rtibia 27.1004
rfoot -18.7022 20.5542
rtoes 7.83869
lfemur -34.875 6.96188 -16.9503
ltibia 33.9239
lfoot -18.7023 8.54208
ltoes -11.2974
257
root 7.67958 16.5094 16.3746 5.81724 -7.1461 -3.72754
lowerback -0.90544 4.04556 6.64027
upperback -2.5528 5.44006 1.63038
thorax -1.67638 2.61299 -2.02681
lowerneck -8.84622 0.271569 -0.37831
upperneck 15.3053 1.00212 -3.48777
head 6.11188 0.199179 -0.963105
rclavicle -2.29224e-015 -1.19271e-015
rhumerus -15.0526 -2.20448 -84.6618
rradius 41.8278
rwrist -16.506
rhand -18.704 -39.7721
rfingers 7.12502
rthumb 7.59082 -69.6159
lclavicle -2.29224e-015 -1.19271e-015
lhumerus -52.743 29.1539 58.166
lradius 9.51875
lwrist -27.9079
lhand -19.0196 -10.3139
lfingers 7.12502
lthumb 7.28623 19.5407
rfemur -3.34531 -4.17395 26.8285
rtibia 25.7758
rfoot -17.5684 21.605
rtoes 10.72
lfemur -35.0088 6.0495 -15.7263
ltibia 30.6333
lfoot -18.611 8.65345
ltoes -8.85483
258
root 7.68894 16.5016 16.5795 6.03059 -7.52488 -3.9573
lowerback -0.903333 4.11999 6.80849
upperback -2.49429 5.5363 1.63716
thorax -1.5949 2.66159 -2.10756
lowerneck -9.11414 0.459974 -0.328738
upperneck 15.2058 1.24856 -3.46684
head 6.13122 0.321704 -0.944717
rclavicle -6.47448e-014 -1.07344e-014
rhumerus -13.3631 -1.65173 -84.6496
rradius 42.3398
rwrist -16.6671
rhand -18.2968 -39.2663
rfingers 7.12502
rthumb 7.98386 -69.0955
lclavicle -6.47448e-014 -1.07344e-014
lhumerus -53.6477 28.9403 57.4372
lradius 9.29338
lwrist -27.5583
lhand -19.1494 -10.2479
lfingers 7.12502
lthumb 7.16098 19.611
rfemur -2.16001 -4.17752 26.8151
rtibia 24.3624
rfoot -16.9376 22.3068
rtoes 11.1431
lfemur -35.2349 4.83567 -14.6423
ltibia 27.5344
lfoot -18.6542 9.50366
ltoes -9.10503
